<mxfile host="app.diagrams.net" modified="2024-03-28T12:25:27.690Z" agent="Mozilla/5.0 (Windows NT 10.0; Win64; x64) AppleWebKit/537.36 (KHTML, like Gecko) Chrome/122.0.0.0 Safari/537.36 Edg/122.0.0.0" etag="9KUI_7YE6PNutzvoJWJI" version="24.2.0" type="device">
  <diagram name="Page-1" id="TVo9XHrmb5nK1tT2C546">
    <mxGraphModel dx="1042" dy="569" grid="1" gridSize="10" guides="1" tooltips="1" connect="1" arrows="1" fold="1" page="1" pageScale="1" pageWidth="850" pageHeight="1100" math="0" shadow="0">
      <root>
        <mxCell id="0" />
        <mxCell id="1" parent="0" />
        <mxCell id="zBJEFDa1osZtByxJH4oo-16" style="edgeStyle=orthogonalEdgeStyle;rounded=0;orthogonalLoop=1;jettySize=auto;html=1;exitX=0;exitY=0.25;exitDx=0;exitDy=0;entryX=1;entryY=0.5;entryDx=0;entryDy=0;" edge="1" parent="1" source="zBJEFDa1osZtByxJH4oo-15" target="zBJEFDa1osZtByxJH4oo-5">
          <mxGeometry relative="1" as="geometry">
            <Array as="points">
              <mxPoint x="460" y="240" />
            </Array>
          </mxGeometry>
        </mxCell>
        <mxCell id="zBJEFDa1osZtByxJH4oo-15" value="" style="rounded=0;whiteSpace=wrap;html=1;dashed=1;" vertex="1" parent="1">
          <mxGeometry x="455" y="200" width="150" height="170" as="geometry" />
        </mxCell>
        <mxCell id="zBJEFDa1osZtByxJH4oo-7" style="edgeStyle=orthogonalEdgeStyle;rounded=0;orthogonalLoop=1;jettySize=auto;html=1;entryX=0;entryY=0.5;entryDx=0;entryDy=0;" edge="1" parent="1" source="zBJEFDa1osZtByxJH4oo-1" target="zBJEFDa1osZtByxJH4oo-2">
          <mxGeometry relative="1" as="geometry" />
        </mxCell>
        <mxCell id="zBJEFDa1osZtByxJH4oo-1" value="input data for preprocessing" style="rounded=0;whiteSpace=wrap;html=1;" vertex="1" parent="1">
          <mxGeometry x="110" y="110" width="120" height="60" as="geometry" />
        </mxCell>
        <mxCell id="zBJEFDa1osZtByxJH4oo-8" style="edgeStyle=orthogonalEdgeStyle;rounded=0;orthogonalLoop=1;jettySize=auto;html=1;entryX=0;entryY=0.5;entryDx=0;entryDy=0;" edge="1" parent="1" source="zBJEFDa1osZtByxJH4oo-2" target="zBJEFDa1osZtByxJH4oo-3">
          <mxGeometry relative="1" as="geometry" />
        </mxCell>
        <mxCell id="zBJEFDa1osZtByxJH4oo-2" value="Encode the label data" style="rounded=0;whiteSpace=wrap;html=1;" vertex="1" parent="1">
          <mxGeometry x="290" y="110" width="120" height="60" as="geometry" />
        </mxCell>
        <mxCell id="zBJEFDa1osZtByxJH4oo-17" style="edgeStyle=orthogonalEdgeStyle;rounded=0;orthogonalLoop=1;jettySize=auto;html=1;exitX=1;exitY=0.5;exitDx=0;exitDy=0;entryX=1;entryY=0.25;entryDx=0;entryDy=0;" edge="1" parent="1" source="zBJEFDa1osZtByxJH4oo-3" target="zBJEFDa1osZtByxJH4oo-15">
          <mxGeometry relative="1" as="geometry" />
        </mxCell>
        <mxCell id="zBJEFDa1osZtByxJH4oo-3" value="Split the data into train set and test set" style="rounded=0;whiteSpace=wrap;html=1;" vertex="1" parent="1">
          <mxGeometry x="470" y="110" width="120" height="60" as="geometry" />
        </mxCell>
        <mxCell id="zBJEFDa1osZtByxJH4oo-22" style="edgeStyle=orthogonalEdgeStyle;rounded=0;orthogonalLoop=1;jettySize=auto;html=1;exitX=0.5;exitY=1;exitDx=0;exitDy=0;entryX=0.5;entryY=0;entryDx=0;entryDy=0;" edge="1" parent="1" source="zBJEFDa1osZtByxJH4oo-4" target="zBJEFDa1osZtByxJH4oo-18">
          <mxGeometry relative="1" as="geometry" />
        </mxCell>
        <mxCell id="zBJEFDa1osZtByxJH4oo-4" value="Implement Random Forest Classification Algorithm" style="rounded=0;whiteSpace=wrap;html=1;" vertex="1" parent="1">
          <mxGeometry x="470" y="210" width="120" height="60" as="geometry" />
        </mxCell>
        <mxCell id="zBJEFDa1osZtByxJH4oo-11" style="edgeStyle=orthogonalEdgeStyle;rounded=0;orthogonalLoop=1;jettySize=auto;html=1;entryX=1;entryY=0.5;entryDx=0;entryDy=0;" edge="1" parent="1" source="zBJEFDa1osZtByxJH4oo-5" target="zBJEFDa1osZtByxJH4oo-6">
          <mxGeometry relative="1" as="geometry" />
        </mxCell>
        <mxCell id="zBJEFDa1osZtByxJH4oo-5" value="Save the model and perform testing" style="rounded=0;whiteSpace=wrap;html=1;" vertex="1" parent="1">
          <mxGeometry x="290" y="210" width="120" height="60" as="geometry" />
        </mxCell>
        <mxCell id="zBJEFDa1osZtByxJH4oo-6" value="Integrate into web app by decoding the result with encoded dictionary" style="rounded=0;whiteSpace=wrap;html=1;" vertex="1" parent="1">
          <mxGeometry x="110" y="210" width="120" height="60" as="geometry" />
        </mxCell>
        <mxCell id="zBJEFDa1osZtByxJH4oo-18" value="Use CART Algorithm to create decision tree" style="rounded=0;whiteSpace=wrap;html=1;" vertex="1" parent="1">
          <mxGeometry x="470" y="300" width="120" height="60" as="geometry" />
        </mxCell>
      </root>
    </mxGraphModel>
  </diagram>
</mxfile>
